<svg width="625" height="496" viewBox="0 0 625 496" fill="none" xmlns="http://www.w3.org/2000/svg">
<g opacity="0.888889">
<path d="M2 493.322C5.40468 493.322 245.392 496.103 273.376 488.924C275.893 488.279 282.189 486.476 285.147 480.775L287.251 475.195C291.094 461.755 300.008 475.901 306.176 474.168C325.573 468.718 333.761 485.24 347.695 474.9C354.211 470.063 361.52 461.916 363.166 453.708C363.506 452.011 363.599 447.292 363.301 445.584C361.516 435.34 347.589 439.445 344.601 440.224C310.572 449.084 273.042 431.548 249.74 400.026C249.105 399.167 248.664 398.084 248.619 396.932C248.469 393.054 252.564 392.001 255.596 392.069C294.171 392.941 332.747 393.813 371.322 394.686C374.319 394.753 377.748 394.594 379.662 391.792C381.085 389.707 381.208 386.778 381.265 384.072C382.22 338.872 383.175 293.674 384.129 248.475C330.454 248.486 276.778 248.497 223.103 248.508C226.194 287.076 229.263 326.322 222.531 364.264C222.209 366.073 222.085 367.94 222.302 369.772C223.477 379.68 232.047 379.984 238.753 379.301C281.419 374.959 324.326 376.567 367.121 378.177C374.083 378.439 389.667 380.625 389.191 393.161C388.51 411.109 380.558 419.779 376.867 435.82C374.062 448.009 376.858 464.188 368.932 474.597C351.44 497.569 321.38 488.565 299.613 481.124C274.051 472.385 247.596 463.34 219.931 453.882C203.048 448.11 185.375 441.793 172.962 426.74C160.55 411.686 155.88 384.934 167.765 369.265C176.085 358.297 190.481 356.003 201.774 361.853C203.644 362.822 211.264 364.013 213.262 363.559C218.95 362.266 214.43 344.942 214.567 337.914C214.94 318.629 219.785 301.952 211.709 272.522C199.817 229.182 225.898 209.844 230.913 186.217C234.628 168.717 242.846 156.831 258.351 151.814C261.805 150.695 265.395 150.401 268.966 150.593C276.165 150.981 286.345 148.61 289.782 139.757C296.188 123.255 273.951 108.205 275.73 90.0879C276.683 80.3832 284.287 73.8174 291.627 69.815C298.966 65.8125 307.158 62.7212 312.21 55.1148C315.914 49.538 320.077 40.7909 325.545 44.0693C326.603 44.7033 327.486 45.7125 328.142 46.9037C337.453 63.8356 338.576 86.8388 331.115 105.043C326.057 117.381 317.093 129.549 319.855 142.918C323.075 158.504 341.084 162.841 352.73 155.219C350.791 148.286 341.764 149.288 337.839 154.847C333.915 160.406 332.976 168.155 330.144 174.62C324.72 187.001 312.075 193.527 300.71 191.053C289.345 188.581 279.722 177.998 275.383 165C273.29 158.728 270.895 150.473 264.643 151.724C263.663 151.92 262.727 152.372 261.866 152.973C247.336 163.109 236.77 181.186 233.597 201.157C232.956 205.189 231.584 210.405 228.282 210.46C227.709 210.47 227.167 210.166 226.736 209.707C217.302 199.659 206.015 187.302 208.085 171.773C209.771 159.114 219.853 150.37 222.86 138.076C224.984 129.389 223.388 119.591 226.581 111.4C230.255 101.973 239.086 97.4516 244.955 89.8381C250.905 82.1185 253.627 70.901 252.074 60.4955C251.18 54.5051 248.957 48.6279 249.595 42.5888C250.402 34.9602 255.387 29.3297 259.843 24.4445C268.814 14.6084 278.582 4.31113 290.569 2.44947C302.18 0.645452 313.473 7.15165 323.808 13.8287C332.899 19.7019 342.034 26.0038 349.006 35.209C355.977 44.4141 360.562 57.0948 358.799 69.4185C357.067 81.5299 349.608 94.1479 354.564 104.866C357.623 111.479 364.795 114.958 366.157 122.362C367.171 127.876 364.496 133.27 363.325 138.739C359.288 157.596 356.077 169.074 369.18 180.311C382.844 192.027 403.969 175.789 402.289 242.113C401.489 273.728 396.405 304.154 393.61 335.421C392.885 343.527 392.378 352.058 395.068 359.528C401.899 378.493 420.494 366.957 433.151 367.73C446.83 368.565 459.004 376.103 462.467 393.311C465.065 406.227 460.61 417.127 455.686 426.257C443.779 448.334 426.15 455.554 396.248 464.923C391.403 466.885 386.557 469.827 383.17 474.889C382.415 475.917 381.782 477.009 381.338 478.158C380.893 479.307 380.635 480.511 380.622 481.764C380.606 483.182 380.61 484.69 381.234 485.891C382.013 487.389 383.535 488.001 384.942 488.466C400.769 493.697 425.028 491.034 440.393 491.409L623 491.545" stroke="#F7F0E2" stroke-width="3" stroke-linecap="round" stroke-linejoin="round"/>
</g>
</svg>
